# xmcd
#
# Track frame offsets: 
#        150
#        12418
#        25672
#        35584
#        49677
#        60037
#        71286
#        82825
#        91604
#        103174
#        115485
#        127701
#        141959
#        152792
#        163995
#        179976
#        196985
#        209070
#        221947
#        234643
#        245048
#
# Disc length: 3483 seconds
#
# Revision: 1
# Processed by: cddbd v1.5.1PL2 Copyright (c) Steve Scherf et al.
# Submitted via: ExactAudioCopy v0.95b4
#
DISCID=2c0d9915
DTITLE=Various Artist - Hvìzdy americké country CD5
DYEAR=2000
DGENRE=Country
TTITLE0=Frankie Laine - High Noon
TTITLE1=Lacy Dalton - Dream baby (How Long Must I Dream)
TTITLE2=Hank Locklin - Please, Help me, I'm Falling
TTITLE3=Lynn Anderson - Cry
TTITLE4=Faron Young - Hello Walls
TTITLE5=Gene Vincent - Am I That Easy to Forget
TTITLE6=The Kendalls - Heaven's Just a Sin Away
TTITLE7=The Cripple Creek Quartet - Foggy Mountain Breakdown
TTITLE8=Freddy Fender - Before the Next Teardrop Falls
TTITLE9=The Jordanaires - Will the Circle Be Unbroken
TTITLE10=The Everly Brothers - Let It Be Me
TTITLE11=Kenny Rogers - You Are So Beautiful
TTITLE12=Billie Jo Spears - Misty Blue
TTITLE13=Chet Atkins - Midnight
TTITLE14=Sammy Kershaw - I Got a Name
TTITLE15=Kenny Rogers - You Decorated My Life
TTITLE16=Floyd Cramer - If
TTITLE17=Jim Reeves - Distant Drums
TTITLE18=Dolly Parton - To Daddy
TTITLE19=The Everly Brothers - All I Have to Do Is Dream
TTITLE20=Kenny Rogers - The Wind Beneath My Wings
EXTD=YEAR: 2000
EXTT0=
EXTT1=
EXTT2=
EXTT3=
EXTT4=
EXTT5=
EXTT6=
EXTT7=
EXTT8=
EXTT9=
EXTT10=
EXTT11=
EXTT12=
EXTT13=
EXTT14=
EXTT15=
EXTT16=
EXTT17=
EXTT18=
EXTT19=
EXTT20=
PLAYORDER=
